Coordinates
version=1
nRows=13
nColumns=63
inDegrees=yes

Units are S.I. units (second, meters, Newtons, ...)
If the header above contains a line with 'inDegrees', this indicates whether rotational values are in degrees (yes) or radians (no).

endheader
time	pelvis_tilt	pelvis_list	pelvis_rotation	pelvis_tx	pelvis_ty	pelvis_tz	hip_flexion_r	hip_adduction_r	hip_rotation_r	knee_angle_r	knee_angle_r_beta	ankle_angle_r	subtalar_angle_r	mtp_angle_r	hip_flexion_l	hip_adduction_l	hip_rotation_l	knee_angle_l	knee_angle_l_beta	ankle_angle_l	subtalar_angle_l	mtp_angle_l	L5_S1_Flex_Ext	L5_S1_Lat_Bending	L5_S1_axial_rotation	L4_L5_Flex_Ext	L4_L5_Lat_Bending	L4_L5_axial_rotation	L3_L4_Flex_Ext	L3_L4_Lat_Bending	L3_L4_axial_rotation	L2_L3_Flex_Ext	L2_L3_Lat_Bending	L2_L3_axial_rotation	L1_L2_Flex_Ext	L1_L2_Lat_Bending	L1_L2_axial_rotation	L1_T12_Flex_Ext	L1_T12_Lat_Bending	L1_T12_axial_rotation	Abs_r3	Abs_r2	Abs_r1	Abs_t1	Abs_t2	neck_flexion	neck_bending	neck_rotation	arm_flex_r	arm_add_r	arm_rot_r	elbow_flex_r	pro_sup_r	wrist_flex_r	wrist_dev_r	arm_flex_l	arm_add_l	arm_rot_l	elbow_flex_l	pro_sup_l	wrist_flex_l	wrist_dev_l
2.169492	-1.156065	-0.446776	93.014945	0.256883	0.941896	0.276883	-2.125673	-1.657950	-17.051910	2.809349	0.049032	16.098885	15.186863	0.000000	-0.676835	2.649096	0.608717	5.145167	0.089800	13.474679	-11.197223	0.000000	-0.015619	-0.176883	0.389345	-0.029007	-0.235254	0.413679	-0.025661	-0.430073	0.413679	-0.017851	-0.430073	0.340677	-0.014504	-0.360699	0.316343	-0.008925	-0.273991	0.292009	-0.111568	-2.000932	2.165422	0.000000	0.000000	15.643352	0.645424	-0.703126	8.046690	-4.767670	147.550626	3.144297	6.055027	2.519675	-11.765994	9.889223	-13.500576	93.175873	21.850110	43.235841	-7.222982	1.344464
2.186441	-1.102358	-0.424394	92.967289	0.256893	0.941966	0.276715	-2.146405	-1.569573	-16.804894	2.773330	0.048404	16.145288	15.036121	0.000000	-0.714344	2.597600	0.642887	5.160392	0.090066	13.489830	-11.319766	0.000000	-0.009165	-0.168842	0.406032	-0.017020	-0.224559	0.431409	-0.015057	-0.410522	0.431409	-0.010474	-0.410522	0.355278	-0.008510	-0.344302	0.329901	-0.005237	-0.261536	0.304524	-0.065462	-1.909971	2.258229	0.000000	0.000000	15.495477	0.489994	-0.903891	7.989905	-4.843216	147.086444	3.241241	6.182783	2.378348	-12.020713	9.934328	-13.437185	93.367737	21.819022	43.529410	-7.176184	1.327277
2.203390	-1.057449	-0.403736	92.927852	0.256901	0.942048	0.276522	-2.170008	-1.490043	-16.596149	2.744646	0.047903	16.179578	14.913295	0.000000	-0.757591	2.560857	0.808110	5.157027	0.090007	13.404696	-11.623228	0.000000	-0.000345	-0.162124	0.424339	-0.000641	-0.215625	0.450861	-0.000567	-0.394189	0.450861	-0.000394	-0.394189	0.371297	-0.000320	-0.330604	0.344776	-0.000197	-0.251130	0.318254	-0.002465	-1.833981	2.360048	0.000000	0.000000	15.306820	0.344254	-1.112302	7.918324	-4.906526	146.714497	3.302853	6.276411	2.280615	-12.269475	9.992992	-13.380914	93.586958	21.800862	43.885636	-7.096225	1.365664
2.220339	-1.023470	-0.383106	92.906277	0.256895	0.942144	0.276320	-2.199151	-1.423920	-16.491720	2.724736	0.047556	16.209588	14.870770	0.000000	-0.802714	2.537526	1.040524	5.144282	0.089785	13.250335	-12.000850	0.000000	0.010385	-0.157120	0.439732	0.019286	-0.208970	0.467216	0.017061	-0.382022	0.467216	0.011869	-0.382022	0.384766	0.009643	-0.320399	0.357282	0.005934	-0.243379	0.329799	0.074178	-1.777373	2.445659	0.000000	0.000000	15.074815	0.203279	-1.338530	7.845969	-4.954861	146.459964	3.345318	6.382341	2.204759	-12.506093	10.056800	-13.337689	93.811959	21.803214	44.273904	-7.008248	1.466389
2.237288	-1.004656	-0.360335	92.878872	0.256913	0.942255	0.276122	-2.230723	-1.376838	-16.416585	2.715241	0.047390	16.232602	14.832589	0.000000	-0.857242	2.532047	1.306619	5.115446	0.089281	13.028011	-12.447444	0.000000	0.022171	-0.154361	0.454626	0.041175	-0.205300	0.483040	0.036425	-0.375314	0.483040	0.025340	-0.375314	0.397798	0.020588	-0.314773	0.369384	0.012669	-0.239105	0.340969	0.158368	-1.746163	2.528493	0.000000	0.000000	14.808753	0.071029	-1.585649	7.778360	-4.987913	146.288333	3.378146	6.529980	2.153499	-12.731479	10.113357	-13.315422	93.977186	21.832741	44.712463	-6.920190	1.632585
2.254237	-0.999406	-0.338897	92.856459	0.256929	0.942371	0.275943	-2.259274	-1.349292	-16.390301	2.717474	0.047429	16.258033	14.812133	0.000000	-0.911712	2.544036	1.633980	5.079620	0.088656	12.739276	-13.003464	0.000000	0.034678	-0.153575	0.465871	0.064400	-0.204255	0.494988	0.056972	-0.373403	0.494988	0.039633	-0.373403	0.407637	0.032202	-0.313171	0.378520	0.019815	-0.237888	0.349403	0.247700	-1.737276	2.591036	0.000000	0.000000	14.526491	-0.055562	-1.843594	7.720360	-5.005850	146.280839	3.399535	6.599585	2.160327	-12.923174	10.161463	-13.307920	94.111211	21.877020	45.130446	-6.838009	1.836985
2.271186	-1.005631	-0.316551	92.828097	0.256973	0.942485	0.275786	-2.289454	-1.337546	-16.386516	2.719783	0.047469	16.278991	14.815991	0.000000	-0.964941	2.563340	1.857835	5.046934	0.088086	12.482915	-13.430344	0.000000	0.046456	-0.154701	0.475324	0.086274	-0.205753	0.505032	0.076323	-0.376141	0.505032	0.053095	-0.376141	0.415908	0.043139	-0.315467	0.386201	0.026545	-0.239632	0.356493	0.331833	-1.750013	2.643608	0.000000	0.000000	14.246828	-0.172041	-2.111700	7.673484	-5.012824	146.245911	3.428417	6.775190	2.159490	-13.110701	10.160887	-13.327193	93.935280	21.942013	45.800750	-6.737043	2.129900
2.288136	-1.019582	-0.293901	92.801433	0.257024	0.942590	0.275657	-2.318527	-1.337704	-16.383061	2.724780	0.047556	16.290881	14.818147	0.000000	-1.019141	2.591801	2.091800	5.006882	0.087387	12.210408	-13.901719	0.000000	0.056589	-0.156845	0.481804	0.105092	-0.208604	0.511917	0.092970	-0.381354	0.511917	0.064676	-0.381354	0.421579	0.052549	-0.319839	0.391466	0.032335	-0.242954	0.361353	0.404211	-1.774267	2.679651	0.000000	0.000000	13.990828	-0.262309	-2.334410	7.640515	-5.020417	146.191865	3.478720	6.889764	2.187921	-13.267203	10.175118	-13.349197	93.914399	22.006910	46.174116	-6.668842	2.374924
2.305085	-1.042370	-0.278386	92.777734	0.257082	0.942664	0.275577	-2.336861	-1.352388	-16.381482	2.733492	0.047708	16.297438	14.838248	0.000000	-1.056763	2.624319	2.210637	4.977524	0.086874	12.003423	-14.215339	0.000000	0.064451	-0.160227	0.487064	0.119692	-0.213102	0.517506	0.105887	-0.389576	0.517506	0.073661	-0.389576	0.426181	0.059849	-0.326735	0.395740	0.036827	-0.248191	0.365298	0.460368	-1.812518	2.708905	0.000000	0.000000	13.794482	-0.324855	-2.510753	7.615020	-5.030684	145.933904	3.552122	6.957878	2.281967	-13.367034	10.198676	-13.372547	93.981288	22.055330	46.333577	-6.596466	2.564793
2.322034	-1.071239	-0.269850	92.760192	0.257137	0.942696	0.275549	-2.346379	-1.377546	-16.386544	2.740359	0.047828	16.290900	14.879961	0.000000	-1.080911	2.662013	2.298297	4.949720	0.086389	11.827021	-14.484255	0.000000	0.069092	-0.164242	0.489794	0.128311	-0.218441	0.520406	0.113512	-0.399337	0.520406	0.078966	-0.399337	0.428569	0.064159	-0.334921	0.397957	0.039479	-0.254410	0.367345	0.493519	-1.857933	2.724085	0.000000	0.000000	13.675884	-0.357222	-2.614600	7.603599	-5.051647	145.486619	3.659862	6.932281	2.429744	-13.397779	10.223712	-13.400752	94.119040	22.105200	46.233342	-6.577853	2.684133
2.338983	-1.106262	-0.273501	92.763751	0.257161	0.942672	0.275580	-2.337449	-1.415481	-16.453046	2.756130	0.048104	16.278562	14.990835	0.000000	-1.084619	2.707513	2.424230	4.923670	0.085934	11.657202	-14.777100	0.000000	0.070759	-0.168860	0.486615	0.131407	-0.224584	0.517029	0.116251	-0.410566	0.517029	0.080871	-0.410566	0.425789	0.065707	-0.344339	0.395375	0.040432	-0.261564	0.364962	0.505427	-1.910178	2.706409	0.000000	0.000000	13.644866	-0.360434	-2.643362	7.604557	-5.074486	144.938275	3.770311	6.749441	2.668681	-13.338419	10.230226	-13.434933	94.200499	22.141806	46.043255	-6.565609	2.738195
2.355932	-1.144005	-0.280582	92.744911	0.257231	0.942601	0.275656	-2.321798	-1.457940	-16.447675	2.762728	0.048219	16.242818	15.067291	0.000000	-1.079839	2.752653	2.432633	4.899047	0.085505	11.553029	-14.925467	0.000000	0.068955	-0.173621	0.485655	0.128056	-0.230916	0.516008	0.113286	-0.422142	0.516008	0.078808	-0.422142	0.424948	0.064031	-0.354048	0.394594	0.039401	-0.268939	0.364241	0.492536	-1.964033	2.701065	0.000000	0.000000	13.686880	-0.330364	-2.585808	7.619883	-5.112784	143.997203	3.941227	6.658656	2.888722	-13.208471	10.216102	-13.479643	94.213521	22.184472	45.729947	-6.586232	2.744266
2.372881	-1.188002	-0.294061	92.740774	0.257278	0.942480	0.275786	-2.296536	-1.511107	-16.487097	2.772241	0.048385	16.199511	15.196169	0.000000	-1.059427	2.805317	2.459222	4.878958	0.085154	11.464288	-15.066032	0.000000	0.064511	-0.178872	0.480162	0.119803	-0.237900	0.510172	0.105984	-0.434909	0.510172	0.073729	-0.434909	0.420142	0.059905	-0.364756	0.390132	0.036861	-0.277073	0.360122	0.460793	-2.023435	2.670518	0.000000	0.000000	13.794247	-0.276588	-2.460088	7.648910	-5.160330	142.812434	4.144215	6.561445	3.132652	-13.014409	10.187316	-13.529337	94.178391	22.217380	45.335059	-6.608549	2.699485
